<svg width="230" height="155" viewBox="0 0 230 155" fill="none" xmlns="http://www.w3.org/2000/svg">
<path d="M84.8203 41.1433C85.6546 41.1419 86.4611 41.5978 87.0913 42.4271C87.5892 42.2207 88.1112 42.1859 88.6192 42.3252C89.0397 41.3994 89.6443 40.7018 90.3447 40.3345C91.0451 39.9671 91.8046 39.9492 92.5123 40.2833C93.2199 40.6174 93.8385 41.286 94.2778 42.1916C94.7171 43.0971 94.954 44.192 94.954 45.3163H81.422C81.5879 44.1356 82.0159 43.077 82.6344 42.3175C83.253 41.558 84.0246 41.1435 84.8203 41.1433Z" fill="white"/>
<path d="M64.4623 57.7525C65.251 57.7511 66.0135 58.1821 66.6093 58.9661C67.08 58.7711 67.5735 58.7382 68.0537 58.8698C68.4513 57.9946 69.0229 57.3351 69.6851 56.9878C70.3473 56.6405 71.0653 56.6235 71.7343 56.9394C72.4032 57.2553 72.9881 57.8874 73.4034 58.7435C73.8187 59.5996 74.0427 60.6347 74.0427 61.6976H61.2495C61.4064 60.5814 61.811 59.5806 62.3958 58.8626C62.9805 58.1445 63.71 57.7527 64.4623 57.7525Z" fill="white"/>
<path d="M44.1085 30.3582C44.9291 30.3568 45.7225 30.8052 46.3424 31.621C46.8322 31.418 47.3457 31.3838 47.8453 31.5208C48.2589 30.6101 48.8537 29.9239 49.5426 29.5626C50.2316 29.2012 50.9787 29.1836 51.6747 29.5122C52.3708 29.8409 52.9793 30.4986 53.4114 31.3893C53.8436 32.28 54.0766 33.357 54.0766 34.463H40.7657C40.929 33.3016 41.35 32.2603 41.9584 31.5132C42.5668 30.7661 43.3258 30.3584 44.1085 30.3582Z" fill="white"/>
<path d="M126.065 154.487H158.778V97.0711H126.065V154.487Z" fill="#3F3D56"/>
<path d="M138.012 154.487H146.832V142.809H138.012V154.487Z" fill="#E2E2E2"/>
<path d="M115.163 21.5254C115.162 21.5678 115.161 21.6098 115.161 21.6524C115.16 22.4333 115.263 23.2063 115.464 23.9254C115.664 24.6446 115.958 25.2952 116.328 25.8385C116.386 26.0254 116.45 26.2074 116.52 26.3839C116.253 27.6038 116.119 28.8818 116.123 30.1674C116.123 34.6014 117.631 38.1959 119.491 38.1959C121.35 38.1959 122.858 34.6014 122.858 30.1674C122.86 29.207 122.786 28.2497 122.639 27.3155C123.216 26.3675 123.57 25.1556 123.645 23.8698C123.72 22.5839 123.512 21.2967 123.053 20.2096C123.437 20.7183 123.883 21.1063 124.366 21.3511C124.85 21.5958 125.36 21.6925 125.869 21.6355C126.377 21.5784 126.872 21.3688 127.327 21.0188C127.781 20.6688 128.185 20.1854 128.515 19.5965C128.846 19.0077 129.096 18.3253 129.251 17.5888C129.405 16.8523 129.463 16.0764 129.418 15.3062C129.374 14.536 129.229 13.7868 128.993 13.1021C128.756 12.4174 128.432 11.8109 128.04 11.3177C128.7 10.9482 129.28 10.3115 129.718 9.47665C130.156 8.64182 130.435 7.64079 130.525 6.58233C130.614 5.52388 130.511 4.44845 130.226 3.47288C129.941 2.49731 129.485 1.6589 128.908 1.04873C128.331 0.438563 127.655 0.0799669 126.953 0.0118947C126.251 -0.0561775 125.55 0.168879 124.926 0.662616C124.303 1.15635 123.78 1.89989 123.416 2.81246C123.051 3.72503 122.858 4.77173 122.858 5.83886C122.858 5.92435 122.86 6.00916 122.862 6.09374C122.334 5.84885 121.777 5.77934 121.229 5.88993C120.682 6.00052 120.156 6.28862 119.688 6.73467C119.22 7.18073 118.821 7.77428 118.518 8.47504C118.215 9.1758 118.014 9.96735 117.931 10.7959C117.451 10.3627 116.914 10.0931 116.359 10.0059C115.803 9.91871 115.242 10.016 114.714 10.291C114.186 10.5659 113.703 11.012 113.3 11.5983C112.897 12.1846 112.582 12.8969 112.379 13.686C112.175 14.475 112.087 15.3218 112.121 16.1675C112.155 17.0132 112.31 17.8377 112.575 18.5836C112.84 19.3295 113.208 19.979 113.655 20.487C114.102 20.995 114.617 21.3493 115.163 21.5254ZM121.736 17.5166C121.791 17.5166 121.846 17.5138 121.901 17.5102C121.936 17.6828 121.975 17.8518 122.02 18.0171C121.928 17.8417 121.83 17.6745 121.726 17.5162L121.736 17.5166Z" fill="white"/>
<path d="M117.566 78.0948H121.415L121.277 69.3372V69.3338L120.774 37.2215C120.387 37.5797 119.943 37.7693 119.49 37.7693C119.037 37.7693 118.593 37.5797 118.207 37.2215L117.703 69.3338V69.3372L117.566 78.0948Z" fill="#6C63FF"/>
<path d="M110.511 84.4189V154.486H128.47V83.4463L124.301 83.6718V69.3372H114.679V84.1934L110.511 84.4189Z" fill="#6C63FF"/>
<path d="M161.026 21.5254C161.025 21.5678 161.024 21.6098 161.024 21.6524C161.023 22.4333 161.126 23.2063 161.326 23.9254C161.527 24.6446 161.821 25.2952 162.19 25.8385C162.248 26.0254 162.312 26.2074 162.383 26.3839C162.115 27.6038 161.981 28.8818 161.986 30.1674C161.986 34.6014 163.493 38.1959 165.353 38.1959C167.213 38.1959 168.721 34.6014 168.721 30.1674C168.722 29.207 168.648 28.2497 168.501 27.3155C169.079 26.3675 169.433 25.1556 169.508 23.8698C169.583 22.5839 169.374 21.2967 168.915 20.2096C169.299 20.7183 169.746 21.1063 170.229 21.3511C170.712 21.5959 171.223 21.6926 171.731 21.6355C172.239 21.5785 172.735 21.3689 173.19 21.0189C173.644 20.6689 174.048 20.1854 174.378 19.5966C174.708 19.0078 174.958 18.3253 175.113 17.5888C175.268 16.8523 175.325 16.0764 175.281 15.3062C175.237 14.536 175.092 13.7868 174.855 13.1021C174.619 12.4174 174.295 11.8109 173.902 11.3177C174.562 10.9482 175.143 10.3115 175.581 9.47665C176.019 8.64182 176.298 7.6408 176.387 6.58234C176.477 5.52388 176.373 4.44845 176.088 3.47288C175.803 2.49731 175.348 1.6589 174.77 1.04873C174.193 0.438562 173.517 0.0799671 172.815 0.0118947C172.113 -0.0561776 171.412 0.168879 170.789 0.662616C170.165 1.15635 169.643 1.89989 169.278 2.81246C168.914 3.72503 168.721 4.77173 168.721 5.83886C168.721 5.92435 168.723 6.00916 168.725 6.09374C168.197 5.84885 167.64 5.77934 167.092 5.88993C166.544 6.00052 166.019 6.28862 165.551 6.73467C165.083 7.18073 164.684 7.77428 164.381 8.47504C164.077 9.1758 163.877 9.96735 163.793 10.7959C163.313 10.3627 162.777 10.0931 162.221 10.0059C161.666 9.91871 161.105 10.016 160.576 10.291C160.048 10.5659 159.566 11.012 159.162 11.5983C158.759 12.1846 158.445 12.8969 158.241 13.686C158.038 14.475 157.95 15.3218 157.984 16.1675C158.018 17.0132 158.172 17.8377 158.437 18.5836C158.702 19.3295 159.071 19.979 159.518 20.487C159.965 20.995 160.479 21.3493 161.026 21.5254ZM167.598 17.5166C167.654 17.5166 167.709 17.5138 167.764 17.5102C167.798 17.6828 167.838 17.8518 167.883 18.0171C167.791 17.8417 167.693 17.6745 167.588 17.5162L167.598 17.5166Z" fill="#FFF5F5" fill-opacity="0.83"/>
<path d="M163.429 78.0948H167.277L166.636 37.2228C165.807 37.6749 164.9 37.6749 164.07 37.2228L163.429 78.0948Z" fill="#6C63FF"/>
<path d="M156.373 84.4189V154.486H174.334V83.4463L172.859 83.527L170.163 83.6718V69.3372H160.542V84.1934L156.373 84.4189Z" fill="#6C63FF"/>
<path d="M147.303 110.732H151.74V104.001H147.303V110.732Z" fill="white"/>
<path d="M140.203 110.732H144.64V104.001H140.203V110.732Z" fill="white"/>
<path d="M133.104 110.732H137.541V104.001H133.104V110.732Z" fill="white"/>
<path d="M147.303 121.502H151.74V114.771H147.303V121.502Z" fill="white"/>
<path d="M140.203 121.502H144.64V114.771H140.203V121.502Z" fill="white"/>
<path d="M133.104 121.502H137.541V114.771H133.104V121.502Z" fill="white"/>
<path d="M147.303 132.273H151.74V125.541H147.303V132.273Z" fill="white"/>
<path d="M140.203 132.273H144.64V125.541H140.203V132.273Z" fill="white"/>
<path d="M133.104 132.273H137.541V125.541H133.104V132.273Z" fill="white"/>
<path d="M117.272 108.04H121.709V101.308H117.272V108.04Z" fill="white"/>
<path d="M117.272 118.81H121.709V112.078H117.272V118.81Z" fill="white"/>
<path d="M117.272 129.58H121.709V122.849H117.272V129.58Z" fill="white"/>
<path d="M117.272 140.35H121.709V133.619H117.272V140.35Z" fill="white"/>
<path d="M163.098 108.04H167.535V101.308H163.098V108.04Z" fill="white"/>
<path d="M163.098 118.81H167.535V112.078H163.098V118.81Z" fill="white"/>
<path d="M163.098 129.58H167.535V122.849H163.098V129.58Z" fill="white"/>
<path d="M163.098 140.35H167.535V133.619H163.098V140.35Z" fill="white"/>
<path d="M230 154H33V154.673H230V154Z" fill="#3F3D56"/>
</svg>
