<svg width="197" height="144" viewBox="0 0 197 144" fill="none" xmlns="http://www.w3.org/2000/svg">
<g clip-path="url(#clip0)">
<path d="M54.6758 79.787H15.8601V122.413H54.6758V79.787Z" fill="#3F3D56"/>
<path d="M135.646 136.622H47.9979V137.112H135.646V136.622Z" fill="#3F3D56"/>
<path d="M70.536 137.235H0V64.9658H70.536V137.235ZM0.417373 136.745H70.1187V65.4557H0.417373V136.745Z" fill="#3F3D56"/>
<path d="M168.827 104.53C153.293 104.53 140.655 89.6938 140.655 71.4577C140.655 53.2216 153.293 38.3855 168.827 38.3855C184.362 38.3855 197 53.2216 197 71.4577C197 89.6938 184.362 104.53 168.827 104.53ZM168.827 38.8755C153.523 38.8755 141.072 53.4917 141.072 71.4577C141.072 89.4237 153.523 104.04 168.827 104.04C184.132 104.04 196.583 89.4237 196.583 71.4577C196.583 53.4917 184.132 38.8755 168.827 38.8755Z" fill="#3F3D56"/>
<path d="M167.993 87.3813C175.484 87.3813 181.557 80.2521 181.557 71.4577C181.557 62.6633 175.484 55.534 167.993 55.534C160.501 55.534 154.428 62.6633 154.428 71.4577C154.428 80.2521 160.501 87.3813 167.993 87.3813Z" fill="#3F3D56"/>
<path d="M125.925 40.4949L132.516 36.0279L128.711 28.2908L122.12 32.7578L125.925 40.4949Z" fill="#FF6584"/>
<path d="M28.886 44.6596L35.4769 40.1926L31.6717 32.4554L25.0808 36.9225L28.886 44.6596Z" fill="#3F3D56"/>
<path d="M112.778 125.013L119.369 120.546L115.564 112.809L108.973 117.276L112.778 125.013Z" fill="#D0CDE1"/>
<path d="M38.8157 96.9355H31.7203V105.265H38.8157V96.9355Z" fill="#6C63FF"/>
<path d="M167.993 75.3774C169.837 75.3774 171.332 73.6225 171.332 71.4577C171.332 69.2929 169.837 67.538 167.993 67.538C166.148 67.538 164.654 69.2929 164.654 71.4577C164.654 73.6225 166.148 75.3774 167.993 75.3774Z" fill="#6C63FF"/>
<path d="M104.292 27.4494L89.8326 27.871L87.8862 7.6311H104.292V27.4494Z" fill="#2F2E41"/>
<path d="M88.9861 53.6872L83.7081 96.6453C83.7081 96.6453 79.1338 111.929 78.782 119.364L77.3745 130.103L83.7081 131.755L90.3935 101.602L99.542 74.3401L98.4864 105.733L96.3752 131.342L102.709 132.581L106.579 99.9498L110.802 75.9924C110.802 75.9924 113.969 55.3394 109.042 53.2741L88.9861 53.6872Z" fill="#2F2E41"/>
<path d="M83.2846 127.467L82.5804 137.521C82.5804 137.521 90.1175 142.636 87.6991 143.627C85.2807 144.619 81.9707 143.343 81.2936 143.118C80.5787 142.88 79.2438 142.5 78.2338 142.219C77.7663 142.094 77.3454 141.796 77.0328 141.369C76.7202 140.942 76.5323 140.408 76.4968 139.847C76.4961 139.835 76.4955 139.822 76.4949 139.81C76.434 138.573 78.8116 127.822 78.8116 127.822L83.2846 127.467Z" fill="#2F2E41"/>
<path d="M101.588 127.718L102.181 137.332C102.181 137.332 110.764 141.075 108.551 142.591C106.339 144.106 102.882 143.597 102.181 143.528C100.888 143.4 97.6705 143.272 97.6705 143.272C97.6705 143.272 97.0757 143.877 96.8146 142.676C96.5534 141.475 97.1629 130.75 97.1629 130.75L101.588 127.718Z" fill="#2F2E41"/>
<path d="M96.3753 18.9903C100.068 18.9903 103.061 15.4765 103.061 11.1421C103.061 6.80773 100.068 3.29401 96.3753 3.29401C92.683 3.29401 89.6898 6.80773 89.6898 11.1421C89.6898 15.4765 92.683 18.9903 96.3753 18.9903Z" fill="#FFB8B8"/>
<path d="M92.5049 15.6858L91.0973 24.7731L97.0791 28.0776L98.4864 16.5119L92.5049 15.6858Z" fill="#FFB8B8"/>
<path d="M96.3753 25.5992L95.6716 22.2947L91.4492 19.8163L90.0417 21.8816L85.4675 23.5339L90.7455 56.5786C90.7455 56.5786 108.691 57.8178 109.042 54.5133C109.394 51.2088 105.524 42.1215 105.524 42.1215C105.524 42.1215 106.579 37.5779 106.228 35.0995L104.82 25.1861L99.1902 23.1208L97.9045 21.2948L96.7272 23.5339L96.3753 25.5992Z" fill="#D0CDE1"/>
<path d="M88.5891 10.583C93.5915 8.22928 98.5232 7.7272 103.326 10.583V5.83878C103.326 5.433 103.258 5.0312 103.126 4.65631C102.994 4.28142 102.8 3.94079 102.555 3.65386C102.311 3.36693 102.021 3.13933 101.702 2.98404C101.382 2.82876 101.04 2.74884 100.694 2.74884H90.6685C90.117 2.74884 89.5881 3.00602 89.1981 3.46382C88.8081 3.92161 88.5891 4.54251 88.5891 5.18992V10.583Z" fill="#2F2E41"/>
<path d="M103.879 88.3939L118.017 78.8118L109.854 62.215L95.7164 71.7971L103.879 88.3939Z" fill="#6C63FF"/>
<path d="M91.801 58.6439L99.1902 64.8398C99.1902 64.8398 102.357 74.3402 104.82 72.6879C107.283 71.0357 102.005 62.7745 102.005 62.7745L96.0234 55.7525L91.801 58.6439Z" fill="#FFB8B8"/>
<path d="M112.913 55.7525L113.617 60.7092C113.617 60.7092 111.857 71.0357 109.746 68.9704C107.635 66.9051 110.45 60.2962 110.45 60.2962L110.098 56.1656L112.913 55.7525Z" fill="#FFB8B8"/>
<path d="M86.5231 24.36L85.4675 23.5339C85.4675 23.5339 83.3563 23.9469 82.6525 27.2514C81.9488 30.5559 82.6525 45.426 84.4119 48.3174C86.1712 51.2088 91.0973 59.8831 91.0973 59.8831L97.7828 56.1656L90.7455 46.6652L88.9861 34.6865L86.5231 24.36Z" fill="#D0CDE1"/>
<path d="M102.005 26.0122L104.82 25.1861C104.82 25.1861 106.579 26.0122 107.283 28.9036C107.987 31.795 111.857 46.2521 111.505 47.4913C111.154 48.7304 114.672 56.9916 114.672 56.9916L109.746 57.4047L106.931 48.7305L104.116 40.0562L102.005 26.0122Z" fill="#D0CDE1"/>
<path d="M84.7881 18.5952C86.198 17.6863 86.8542 15.6463 86.9009 13.7589C86.9477 11.8714 86.5578 10.0035 86.5271 8.11557C86.5114 7.72933 86.5394 7.34235 86.6105 6.96479C86.7275 6.49614 86.9097 6.05342 87.1497 5.6546C88.9832 2.35664 92.1703 0.036755 95.5273 0.000253093C96.0123 -0.00720923 96.4938 0.0967178 96.9449 0.306186C97.2919 0.469359 97.4054 0.44939 97.4719 0.949653C98.2672 0.641678 99.1296 0.673874 99.9065 1.04054C100.676 1.40782 101.394 1.90965 102.036 2.529C102.417 2.86191 102.777 3.22761 103.112 3.62306C104.886 5.78057 105.295 9.10573 104.781 12.0431C104.614 12.9981 105.415 13.92 106.079 14.5066C106.742 15.0931 107.508 15.6317 107.834 16.5285C108.147 17.3912 107.975 18.3778 108.038 19.3126C108.109 20.1964 108.389 21.0393 108.846 21.7462C109.303 22.4532 109.92 22.996 110.626 23.3135C110.482 23.5159 110.294 23.669 110.082 23.7565C109.87 23.844 109.642 23.8628 109.421 23.8107C108.962 23.697 108.531 23.4566 108.166 23.1093C106.793 21.9149 105.811 20.2037 105.383 18.2615C105.188 19.3018 105.264 20.3748 105.271 21.4399C105.254 22.6285 105.44 23.8091 105.819 24.9115C106.205 26.0193 106.911 26.9318 107.813 27.4886C106.943 27.9888 105.984 27.6263 105.247 26.8884C104.509 26.1506 104.074 25.0795 103.77 23.9996C103.275 22.2397 103.074 20.3843 103.179 18.5351C102.369 20.1348 102.073 22.0214 102.345 23.8546C102.628 25.7236 103.459 27.4174 104.694 28.6425C102.54 28.6211 100.422 27.9949 98.5168 26.8162C98.0247 26.5544 97.591 26.1623 97.2497 25.6707C96.6365 24.6721 96.7816 23.3102 96.9536 22.0959C97.0896 21.1357 96.0675 19.7477 96.6528 19.0583C96.8267 18.8565 97.0591 18.7393 97.3034 18.73C99.0863 18.5285 100.737 17.4774 101.689 15.696C102.356 14.4477 102.797 13.0222 102.797 11.689C102.797 10.6392 102.603 9.60198 102.23 8.64812C101.856 7.69427 101.312 6.8463 100.634 6.16218C99.9555 5.47807 99.1594 4.97393 98.2999 4.68423C97.4404 4.39454 96.5377 4.32612 95.6537 4.48364C94.7696 4.64117 93.9249 5.02093 93.1773 5.59697C92.4297 6.17301 91.797 6.93174 91.3222 7.8213C90.8474 8.71087 90.5418 9.71028 90.4264 10.7512C90.3109 11.7922 90.3883 12.8501 90.6532 13.8527C90.8644 14.6596 91.0156 15.4863 91.1054 16.3238C91.2114 17.2955 91.3799 18.2565 91.6095 19.1983C92.0523 21.0085 92.8026 22.8555 94.1907 23.7997C93.7243 24.0994 93.1844 24.1129 92.6558 24.1812C90.914 24.4065 89.082 24.3568 87.5055 23.4587C85.9288 22.5606 84.6758 20.6481 84.7881 18.5952Z" fill="#2F2E41"/>
<path d="M90.1458 13.5207C90.553 13.5207 90.8831 12.9007 90.8831 12.1359C90.8831 11.371 90.553 10.751 90.1458 10.751C89.7386 10.751 89.4084 11.371 89.4084 12.1359C89.4084 12.9007 89.7386 13.5207 90.1458 13.5207Z" fill="#FFB8B8"/>
</g>
<defs>
<clipPath id="clip0">
<rect width="197" height="144" fill="white"/>
</clipPath>
</defs>
</svg>
