<svg width="291" height="72" viewBox="0 0 291 72" fill="none" xmlns="http://www.w3.org/2000/svg">
<g clip-path="url(#clip0)">
<path d="M32.7 6.36673V35.5867H28.56V30.0667C25.8 33.9467 22.12 35.8867 17.52 35.8867C14.76 35.8867 12.22 35.2267 9.9 33.9067C7.58 32.5467 5.74 30.7067 4.38 28.3867C3.06 26.0667 2.4 23.5467 2.4 20.8267C2.4 18.0667 3.06 15.5267 4.38 13.2067C5.74 10.8867 7.58 9.06673 9.9 7.74673C12.22 6.38673 14.76 5.70673 17.52 5.70673C20.36 5.70673 22.68 6.30673 24.48 7.50673C26.32 8.66673 27.68 9.92673 28.56 11.2867V6.36673H32.7ZM17.52 31.8067C19.52 31.8067 21.36 31.3267 23.04 30.3667C24.72 29.3667 26.04 28.0267 27 26.3467C28 24.6667 28.5 22.8267 28.5 20.8267C28.5 18.8267 28 16.9867 27 15.3067C26.04 13.5867 24.72 12.2467 23.04 11.2867C21.36 10.2867 19.52 9.78673 17.52 9.78673C15.52 9.78673 13.66 10.2867 11.94 11.2867C10.26 12.2467 8.92 13.5867 7.92 15.3067C6.96 16.9867 6.48 18.8267 6.48 20.8267C6.48 22.8267 6.96 24.6667 7.92 26.3467C8.92 28.0267 10.26 29.3667 11.94 30.3667C13.66 31.3267 15.52 31.8067 17.52 31.8067Z" fill="#7A8DFF"/>
<path d="M71.9909 35.5867H67.9709V30.0067C65.0509 33.9267 61.3109 35.8867 56.7509 35.8867C53.9909 35.8867 51.4509 35.2067 49.1309 33.8467C46.8109 32.4867 44.9709 30.6467 43.6109 28.3267C42.2509 25.9667 41.5709 23.4267 41.5709 20.7067C41.5709 17.9867 42.2509 15.4667 43.6109 13.1467C44.9709 10.7867 46.8109 8.92673 49.1309 7.56673C51.4509 6.20673 53.9909 5.52673 56.7509 5.52673C61.4709 5.52673 65.2109 7.38673 67.9709 11.1067V-4.25327H71.9909V35.5867ZM67.8509 20.7067C67.8509 18.7067 67.3509 16.8667 66.3509 15.1867C65.3509 13.5067 63.9909 12.1667 62.2709 11.1667C60.5909 10.1667 58.7509 9.66673 56.7509 9.66673C54.7509 9.66673 52.9109 10.1667 51.2309 11.1667C49.5509 12.1667 48.2109 13.5067 47.2109 15.1867C46.2109 16.8667 45.7109 18.7067 45.7109 20.7067C45.7109 22.7067 46.2109 24.5667 47.2109 26.2867C48.2109 27.9667 49.5509 29.3067 51.2309 30.3067C52.9109 31.3067 54.7509 31.8067 56.7509 31.8067C58.7509 31.8067 60.5909 31.3067 62.2709 30.3067C63.9909 29.3067 65.3509 27.9667 66.3509 26.2867C67.3509 24.5667 67.8509 22.7067 67.8509 20.7067Z" fill="#7A8DFF"/>
<path d="M112.541 6.36673V35.5867H108.401V30.0667C105.641 33.9467 101.961 35.8867 97.3608 35.8867C94.6008 35.8867 92.0608 35.2267 89.7408 33.9067C87.4208 32.5467 85.5808 30.7067 84.2208 28.3867C82.9008 26.0667 82.2408 23.5467 82.2408 20.8267C82.2408 18.0667 82.9008 15.5267 84.2208 13.2067C85.5808 10.8867 87.4208 9.06673 89.7408 7.74673C92.0608 6.38673 94.6008 5.70673 97.3608 5.70673C100.201 5.70673 102.521 6.30673 104.321 7.50673C106.161 8.66673 107.521 9.92673 108.401 11.2867V6.36673H112.541ZM97.3608 31.8067C99.3608 31.8067 101.201 31.3267 102.881 30.3667C104.561 29.3667 105.881 28.0267 106.841 26.3467C107.841 24.6667 108.341 22.8267 108.341 20.8267C108.341 18.8267 107.841 16.9867 106.841 15.3067C105.881 13.5867 104.561 12.2467 102.881 11.2867C101.201 10.2867 99.3608 9.78673 97.3608 9.78673C95.3608 9.78673 93.5008 10.2867 91.7808 11.2867C90.1008 12.2467 88.7608 13.5867 87.7608 15.3067C86.8008 16.9867 86.3208 18.8267 86.3208 20.8267C86.3208 22.8267 86.8008 24.6667 87.7608 26.3467C88.7608 28.0267 90.1008 29.3667 91.7808 30.3667C93.5008 31.3267 95.3608 31.8067 97.3608 31.8067Z" fill="#7A8DFF"/>
<path d="M166.172 5.58673L154.352 35.5867H150.032L143.852 20.0467L137.672 35.5867H133.352L121.412 5.58673H125.852L135.512 29.8867L141.632 14.5267L138.092 5.58673H142.532L152.192 29.8867L161.792 5.58673H166.172Z" fill="#7A8DFF"/>
<path d="M188.774 35.8867C186.054 35.8867 183.514 35.2067 181.154 33.8467C178.834 32.4867 176.994 30.6467 175.634 28.3267C174.274 25.9667 173.594 23.4267 173.594 20.7067C173.594 17.9467 174.274 15.4067 175.634 13.0867C176.994 10.7267 178.834 8.86673 181.154 7.50673C183.514 6.10673 186.054 5.40673 188.774 5.40673C191.534 5.40673 194.074 6.10673 196.394 7.50673C198.754 8.86673 200.614 10.7267 201.974 13.0867C203.374 15.4067 204.074 17.9467 204.074 20.7067C204.074 23.4267 203.374 25.9667 201.974 28.3267C200.614 30.6467 198.754 32.4867 196.394 33.8467C194.074 35.2067 191.534 35.8867 188.774 35.8867ZM188.774 31.8667C190.814 31.8667 192.674 31.3667 194.354 30.3667C196.074 29.3667 197.434 28.0067 198.434 26.2867C199.434 24.5667 199.934 22.7067 199.934 20.7067C199.934 18.6667 199.434 16.7867 198.434 15.0667C197.434 13.3467 196.074 11.9867 194.354 10.9867C192.674 9.98673 190.814 9.48673 188.774 9.48673C186.774 9.48673 184.914 9.98673 183.194 10.9867C181.514 11.9867 180.174 13.3467 179.174 15.0667C178.174 16.7867 177.674 18.6667 177.674 20.7067C177.674 22.7067 178.174 24.5667 179.174 26.2867C180.174 28.0067 181.514 29.3667 183.194 30.3667C184.914 31.3667 186.774 31.8667 188.774 31.8667Z" fill="#7A8DFF"/>
<path d="M227.99 10.0267C227.07 9.62673 226.15 9.42673 225.23 9.42673C223.35 9.42673 221.73 10.1067 220.37 11.4667C219.01 12.8267 218.33 14.4467 218.33 16.3267V35.5867H214.25V16.3267C214.25 14.1667 214.81 12.2067 215.93 10.4467C217.09 8.64673 218.59 7.30673 220.43 6.42673L220.55 6.36673C222.03 5.68673 223.59 5.34673 225.23 5.34673C227.79 5.34673 230.07 6.12673 232.07 7.68673L227.99 10.0267Z" fill="#7A8DFF"/>
<path d="M254.312 35.5867L243.392 22.8067V35.5867H239.252V-4.61327H243.392V14.4667L253.232 5.58673H259.412L245.072 18.4867L259.772 35.5867H254.312Z" fill="#7A8DFF"/>
<path d="M268.194 27.5467C268.514 28.6667 269.014 29.5467 269.694 30.1867C270.814 31.2267 272.454 31.7467 274.614 31.7467C276.494 31.7467 278.014 31.3067 279.174 30.4267C280.334 29.5467 280.914 28.4067 280.914 27.0067C280.914 25.6867 280.654 24.7067 280.134 24.0667C279.614 23.4267 278.934 23.0267 278.094 22.8667C277.294 22.6667 276.174 22.5467 274.734 22.5067C272.654 22.3867 270.954 22.1667 269.634 21.8467C268.314 21.4867 267.114 20.7067 266.034 19.5067C264.714 17.8667 264.054 16.0667 264.054 14.1067C264.054 13.6267 264.074 13.2667 264.114 13.0267C264.434 10.5067 265.494 8.58673 267.294 7.26673C269.094 5.90673 271.514 5.22673 274.554 5.22673H274.614C276.854 5.22673 278.674 5.64673 280.074 6.48673C281.474 7.32673 282.554 8.34673 283.314 9.54673C284.114 10.8667 284.614 12.2467 284.814 13.6867H280.614C280.534 13.1267 280.274 12.4667 279.834 11.7067C278.834 10.1867 277.094 9.38673 274.614 9.30673C272.094 9.30673 270.434 9.72673 269.634 10.5667C268.834 11.4067 268.354 12.3867 268.194 13.5067C268.154 13.6667 268.134 13.8867 268.134 14.1667C268.134 15.1267 268.474 15.9867 269.154 16.7467C269.714 17.4267 270.434 17.8867 271.314 18.1267C272.194 18.3267 273.454 18.4867 275.094 18.6067C276.414 18.6867 277.534 18.8067 278.454 18.9667C279.414 19.1267 280.314 19.4267 281.154 19.8667C283.754 21.2667 285.054 23.6467 285.054 27.0067C285.054 28.1667 284.814 29.2867 284.334 30.3667C283.894 31.4067 283.254 32.3267 282.414 33.1267C280.534 34.9667 277.954 35.8867 274.674 35.8867C271.474 35.8867 268.874 34.9867 266.874 33.1867C265.314 31.6667 264.354 29.7867 263.994 27.5467H268.194Z" fill="#7A8DFF"/>
</g>
<defs>
<clipPath id="clip0">
<rect width="291" height="72" fill="white"/>
</clipPath>
</defs>
</svg>
