<svg width="499" height="350" viewBox="0 0 499 350" fill="none" xmlns="http://www.w3.org/2000/svg">
<g clip-path="url(#clip0)">
<path d="M187.142 341.365C276.284 341.365 348.547 269.001 348.547 179.735C348.547 90.4697 276.284 18.1055 187.142 18.1055C98.0008 18.1055 25.7373 90.4697 25.7373 179.735C25.7373 269.001 98.0008 341.365 187.142 341.365Z" fill="#F2F2F2"/>
<path d="M213.424 204.698C177.755 259.474 187.529 329.143 187.529 329.143C187.529 329.143 255.133 310.001 290.802 255.225C326.471 200.448 316.698 130.779 316.698 130.779C316.698 130.779 249.093 149.921 213.424 204.698Z" fill="#3F3D56"/>
<path d="M187.339 328.506C187.339 328.506 186.47 328.367 184.872 328.043C183.597 327.784 181.842 327.414 179.699 326.905C160.541 322.382 109.605 307.091 76.3034 266.889C34.6237 216.548 36.3788 146.217 36.3788 146.217C36.3788 146.217 100.109 156.587 142.102 201.794C143.922 203.736 145.693 205.75 147.414 207.834C183.68 251.635 187.061 310.569 187.329 325.139C187.366 327.322 187.339 328.506 187.339 328.506Z" fill="#7A8DFF"/>
<path d="M161.632 204.698C197.301 259.474 187.528 329.143 187.528 329.143C187.528 329.143 119.923 310.001 84.2543 255.225C48.5852 200.448 58.3586 130.779 58.3586 130.779C58.3586 130.779 125.963 149.921 161.632 204.698Z" stroke="#3F3D56" stroke-width="2" stroke-miterlimit="10"/>
<path opacity="0.1" d="M187.33 325.139C186.387 326.276 185.556 327.248 184.872 328.043C183.357 329.773 182.498 330.68 182.498 330.68C182.498 330.68 181.455 329.366 179.699 326.905C170.065 313.455 139.073 265.631 141.465 210.387C141.595 207.492 141.807 204.627 142.103 201.793C143.922 203.736 145.693 205.75 147.414 207.834C183.681 251.635 187.062 310.569 187.33 325.139Z" fill="black"/>
<path d="M240.217 214.382C237.398 279.715 188.968 330.68 188.968 330.68C188.968 330.68 145.109 275.721 147.928 210.388C150.748 145.056 199.178 94.0903 199.178 94.0903C199.178 94.0903 243.037 149.05 240.217 214.382Z" fill="#7A8DFF"/>
<path d="M188.968 328.83L199.615 96.7551" stroke="#3F3D56" stroke-width="2" stroke-miterlimit="10"/>
<path d="M249.5 350C387.295 350 499 343.086 499 334.557C499 326.028 387.295 319.115 249.5 319.115C111.705 319.115 0 326.028 0 334.557C0 343.086 111.705 350 249.5 350Z" fill="#3F3D56"/>
<path d="M41.4141 328.882V266.51" stroke="#3F3D56" stroke-width="2" stroke-miterlimit="10"/>
<path d="M41.4145 275.33C46.279 275.33 50.2225 271.381 50.2225 266.51C50.2225 261.639 46.279 257.69 41.4145 257.69C36.5499 257.69 32.6064 261.639 32.6064 266.51C32.6064 271.381 36.5499 275.33 41.4145 275.33Z" fill="#3F3D56"/>
<path d="M41.4145 304.951C41.4145 304.951 40.1562 277.85 14.3613 281.001L41.4145 304.951Z" fill="#3F3D56"/>
<path d="M255.928 227.057V52.3835" stroke="#3F3D56" stroke-width="2" stroke-miterlimit="10"/>
<path d="M255.928 64.5157C262.619 64.5157 268.043 59.084 268.043 52.3836C268.043 45.6833 262.619 40.2516 255.928 40.2516C249.237 40.2516 243.813 45.6833 243.813 52.3836C243.813 59.084 249.237 64.5157 255.928 64.5157Z" fill="#3F3D56"/>
<path d="M255.928 101.792C255.928 101.792 254.197 64.5156 218.717 68.8485L255.928 101.792Z" fill="#3F3D56"/>
<path d="M401.455 130.393L390.938 150.241C390.938 150.241 314.894 164.823 324.601 187.506C334.309 210.189 345.23 243.404 350.893 242.594C356.556 241.784 387.702 223.961 388.915 218.695C390.129 213.43 361.006 188.721 361.006 188.721L409.14 179.405C409.14 179.405 416.016 211.81 407.118 234.088C398.219 256.366 392.96 316.719 399.028 317.529C405.095 318.339 420.466 323.2 427.342 318.744C434.218 314.288 437.454 216.67 437.454 216.67C437.454 216.67 452.016 152.671 443.117 145.38C434.218 138.089 401.455 130.393 401.455 130.393Z" fill="#2F2E41"/>
<path d="M417.981 307.688C417.981 307.688 408.686 302.789 406.729 306.708C406.729 306.708 408.197 318.465 402.326 319.935C396.456 321.405 394.01 331.692 402.326 332.672C410.643 333.652 416.024 330.712 418.959 330.712C421.894 330.712 418.959 320.425 418.959 320.425L417.981 307.688Z" fill="#2F2E41"/>
<path d="M373.649 226.373C373.649 226.373 363.531 223.548 362.444 227.792C362.444 227.792 366.354 238.975 360.926 241.651C355.497 244.327 355.272 254.9 363.608 254.102C371.944 253.303 376.585 249.293 379.454 248.674C382.323 248.054 377.288 238.617 377.288 238.617L373.649 226.373Z" fill="#2F2E41"/>
<path d="M423.904 60.5214C423.904 60.5214 424.309 75.5084 421.477 76.7236C418.646 77.9388 437.252 85.2298 437.252 85.2298L440.488 79.559C440.488 79.559 436.848 59.3062 437.657 57.686C438.466 56.0658 423.904 60.5214 423.904 60.5214Z" fill="#9F616A"/>
<path d="M430.653 63.9289C444.351 63.9289 455.454 52.8096 455.454 39.0934C455.454 25.3771 444.351 14.2579 430.653 14.2579C416.956 14.2579 405.853 25.3771 405.853 39.0934C405.853 52.8096 416.956 63.9289 430.653 63.9289Z" fill="#2F2E41"/>
<path d="M432.364 26.12C438.032 26.12 442.626 21.519 442.626 15.8433C442.626 10.1676 438.032 5.56653 432.364 5.56653C426.696 5.56653 422.102 10.1676 422.102 15.8433C422.102 21.519 426.696 26.12 432.364 26.12Z" fill="#2F2E41"/>
<path d="M418.681 10.2767C418.681 7.73654 419.62 5.28637 421.318 3.3989C423.016 1.51144 425.351 0.320407 427.874 0.0555663C427.519 0.0186386 427.162 9.18128e-05 426.805 0C424.083 5.7437e-08 421.473 1.08273 419.548 3.00999C417.624 4.93726 416.542 7.55119 416.542 10.2768C416.542 13.0023 417.624 15.6162 419.548 17.5435C421.473 19.4708 424.083 20.5535 426.805 20.5535C427.162 20.5534 427.519 20.5349 427.874 20.4979C425.351 20.2331 423.016 19.0421 421.318 17.1546C419.62 15.2671 418.681 12.817 418.681 10.2767Z" fill="#2F2E41"/>
<path d="M429.972 68.2174C439.354 68.2174 446.96 60.6007 446.96 51.2051C446.96 41.8094 439.354 34.1927 429.972 34.1927C420.589 34.1927 412.983 41.8094 412.983 51.2051C412.983 60.6007 420.589 68.2174 429.972 68.2174Z" fill="#9F616A"/>
<path d="M441.904 73.2806C441.904 73.2806 427.342 77.7362 420.061 73.2806C412.78 68.825 395.387 81.7867 392.556 87.4575C389.724 93.1283 403.073 98.799 403.073 98.799C403.073 98.799 399.261 109.75 400.039 115.204C400.848 120.875 399.432 132.419 399.432 132.419C399.432 132.419 435.167 155.995 443.117 145.38C444.331 143.76 454.443 105.685 454.443 105.685L468.6 91.508C468.6 91.508 459.701 78.5463 454.443 77.3311C449.185 76.1159 441.904 73.2806 441.904 73.2806Z" fill="#D0CDE1"/>
<path d="M344.22 156.519C344.22 156.519 316.714 170.696 322.377 174.747C328.04 178.797 351.096 158.95 351.096 158.95L344.22 156.519Z" fill="#9F616A"/>
<path d="M452.218 146.393C452.218 146.393 439.98 138.118 438.009 142.256C436.039 146.393 451.409 155.709 454.645 152.064C457.881 148.418 452.218 146.393 452.218 146.393Z" fill="#9F616A"/>
<path d="M461.32 87.0525L468.601 91.5081C468.601 91.5081 493.275 125.533 484.78 133.229C476.286 140.925 454.443 156.317 454.443 156.317C454.443 156.317 447.163 145.785 449.59 145.38C452.016 144.975 471.432 128.773 471.432 128.773L454.443 97.1789L461.32 87.0525Z" fill="#D0CDE1"/>
<path d="M397.41 85.4323L392.152 87.4575L378.399 112.166L341.995 156.317C341.995 156.317 346.849 164.013 350.893 162.393C354.938 160.772 385.275 126.748 385.275 126.748L405.095 95.9637L397.41 85.4323Z" fill="#D0CDE1"/>
<path d="M430.653 41.2689C440.1 41.2689 447.757 36.6679 447.757 30.9922C447.757 25.3165 440.1 20.7155 430.653 20.7155C421.207 20.7155 413.549 25.3165 413.549 30.9922C413.549 36.6679 421.207 41.2689 430.653 41.2689Z" fill="#2F2E41"/>
<path d="M395.33 250.65H315.619V330.472H395.33V250.65Z" fill="#7A8DFF"/>
<path d="M384.732 287.242C384.732 298.549 379.444 305.676 371.078 305.676C366.796 305.676 363.535 303.387 362.971 299.984H362.362C360.853 303.524 357.744 305.462 353.569 305.462C346.133 305.462 341.165 299.495 341.165 290.614C341.165 282.084 346.163 276.148 353.462 276.148C357.211 276.148 360.396 278.04 361.798 281.138H362.407V276.896H368.488V296.626C368.488 299.083 369.844 300.564 372.282 300.564C376.503 300.564 379.185 295.436 379.185 287.471C379.185 274.759 369.676 266.259 355.626 266.259C341.729 266.259 331.824 276.407 331.824 290.767C331.824 305.447 341.622 314.816 356.876 314.816C359.655 314.832 362.429 314.597 365.166 314.114C365.784 313.995 366.424 314.123 366.949 314.47C367.474 314.818 367.842 315.357 367.976 315.973C368.109 316.588 367.997 317.232 367.662 317.766C367.328 318.3 366.798 318.682 366.187 318.83C363.051 319.535 359.846 319.883 356.632 319.867C338.087 319.852 326.216 308.377 326.216 290.568C326.216 273.187 338.331 261.254 355.992 261.254C372.968 261.254 384.732 271.86 384.732 287.242ZM347.733 290.751C347.733 296.398 350.384 299.816 354.697 299.816C359.238 299.816 362.103 296.306 362.103 290.751C362.103 285.197 359.238 281.763 354.773 281.763C350.339 281.763 347.733 285.09 347.733 290.751Z" fill="white"/>
</g>
<defs>
<clipPath id="clip0">
<rect width="499" height="350" fill="white"/>
</clipPath>
</defs>
</svg>
